<svg xmlns="http://www.w3.org/2000/svg" viewBox="0 0 96 96" width="96" height="96" role="img" aria-label="Kenya flag"><title>Kenya</title><clipPath id="disc"><circle cx="48.0" cy="48.0" r="48.0"/></clipPath><g clip-path="url(#disc)"><rect x="0" y="0" width="96" height="30" fill="#111111"/><rect x="0" y="30" width="96" height="3" fill="#ffffff"/><rect x="0" y="33" width="96" height="30" fill="#BB0000"/><rect x="0" y="63" width="96" height="3" fill="#ffffff"/><rect x="0" y="66" width="96" height="30" fill="#006600"/><clipPath id="kenya-shield"><ellipse cx="48" cy="48" rx="13" ry="27"/></clipPath><line x1="24" y1="15" x2="72" y2="81" stroke="#ffffff" stroke-width="2.8" stroke-linecap="round"/><line x1="72" y1="15" x2="24" y2="81" stroke="#ffffff" stroke-width="2.8" stroke-linecap="round"/><polygon points="24,15 29,18 24.5,23" fill="#ffffff"/><polygon points="72,15 67,18 71.5,23" fill="#ffffff"/><polygon points="24,81 29,78 24.5,73" fill="#ffffff"/><polygon points="72,81 67,78 71.5,73" fill="#ffffff"/><g clip-path="url(#kenya-shield)"><rect x="35" y="21" width="26" height="14" fill="#111111"/><rect x="35" y="35" width="26" height="26" fill="#BB0000"/><rect x="35" y="61" width="26" height="14" fill="#111111"/><rect x="46.5" y="21" width="3" height="54" fill="#ffffff"/><rect x="39" y="44" width="18" height="2.4" fill="#ffffff"/><rect x="39" y="50" width="18" height="2.4" fill="#ffffff"/></g><ellipse cx="48" cy="48" rx="13" ry="27" fill="none" stroke="#111111" stroke-width="1.6"/></g><circle cx="48.0" cy="48.0" r="47.5" fill="none" stroke="rgba(10,31,43,0.16)"/></svg>
