<?xml version="1.0" encoding="UTF-8"?>
<svg xmlns="http://www.w3.org/2000/svg" viewBox="0 0 320 200" width="320" height="200" role="img" aria-label="Evolis Badgy 2 desktop card printer schematic">
  <title>Evolis Badgy 2 desktop card printer schematic</title>
  <defs>
    <linearGradient id="b" x1="0" y1="0" x2="0" y2="1"><stop offset="0" stop-color="#ffffff"/><stop offset="0.5" stop-color="#f5f9fb"/><stop offset="1" stop-color="#dde8ec"/></linearGradient>
    <linearGradient id="h" x1="0" y1="0" x2="0" y2="1"><stop offset="0" stop-color="#eff5f7"/><stop offset="1" stop-color="#d0dde3"/></linearGradient>
    <linearGradient id="g" x1="0" y1="0" x2="0" y2="1"><stop offset="0" stop-color="#e9f2f5"/><stop offset="1" stop-color="#c0d6de"/></linearGradient>
    <radialGradient id="o" cx="0.42" cy="0.36" r="0.74"><stop offset="0" stop-color="#3c6879"/><stop offset="1" stop-color="#11242d"/></radialGradient>
    <filter id="lift" x="-16%" y="-16%" width="132%" height="132%"><feDropShadow dx="0" dy="2.5" stdDeviation="3" flood-color="#0d1b20" flood-opacity=".18"/></filter>
  </defs>
  <g fill="none" stroke-linecap="round" stroke-linejoin="round" filter="url(#lift)">
    <ellipse cx="160" cy="170" rx="100" ry="9" fill="#0d1b20" opacity="0.07"/>
    <path d="M108,74 L120,46 L200,46 L212,74" stroke="#0d1b20" stroke-width="2.4" fill="url(#h)"/>
    <rect x="130" y="52" width="60" height="15" rx="3" fill="url(#b)" stroke="#0d1b20" stroke-width="1.8"/>
    <line x1="134" y1="60" x2="184" y2="60" stroke="#c3d2d8" stroke-width="1.5"/>
    <rect x="74" y="74" width="172" height="74" rx="12" fill="url(#b)" stroke="#0d1b20" stroke-width="2.4"/>
    <rect x="88" y="88" width="76" height="44" rx="6" fill="url(#h)" stroke="#0d1b20" stroke-width="2.1"/>
    <rect x="97" y="96" width="58" height="28" rx="3" fill="url(#g)" stroke="#5b7480" stroke-width="1.5"/>
    <circle cx="112" cy="110" r="9" stroke="#5b7480" stroke-width="1.5"/>
    <circle cx="140" cy="110" r="9" stroke="#5b7480" stroke-width="1.5"/>
    <circle cx="112" cy="110" r="2.5" fill="#5b7480" stroke-width="2.4"/>
    <circle cx="140" cy="110" r="2.5" fill="#5b7480" stroke-width="2.4"/>
    <rect x="178" y="92" width="52" height="26" rx="5" fill="url(#g)" stroke="#0d1b20" stroke-width="1.8"/>
    <line x1="186" y1="101" x2="220" y2="101" stroke="#5b7480" stroke-width="1.8"/>
    <line x1="186" y1="109" x2="206" y2="109" stroke="#c3d2d8" stroke-width="1.8"/>
    <rect x="176" y="126" width="54" height="6" rx="3" fill="#c3d2d8" stroke-width="2.4"/>
    <g transform="rotate(-7 204 150)">
    <rect x="176" y="134" width="56" height="34" rx="4" fill="url(#b)" stroke="#0d1b20" stroke-width="2.4"/>
    <rect x="182" y="141" width="13" height="11" rx="2" stroke="#5b7480" stroke-width="1.5"/>
    <line x1="200" y1="144" x2="224" y2="144" stroke="#c3d2d8" stroke-width="1.8"/>
    <line x1="200" y1="150" x2="216" y2="150" stroke="#c3d2d8" stroke-width="1.8"/>
    <line x1="182" y1="159" x2="226" y2="159" stroke="#023aaa" stroke-width="3.0"/>
    </g>
  </g>
</svg>
