<?xml version="1.0" encoding="UTF-8"?>
<svg xmlns="http://www.w3.org/2000/svg" viewBox="0 0 320 200" width="320" height="200" role="img" aria-label="Walkthrough metal detector arch schematic">
  <title>Walkthrough metal detector arch schematic</title>
  <defs>
    <linearGradient id="b" x1="0" y1="0" x2="0" y2="1"><stop offset="0" stop-color="#ffffff"/><stop offset="0.5" stop-color="#f5f9fb"/><stop offset="1" stop-color="#dde8ec"/></linearGradient>
    <linearGradient id="h" x1="0" y1="0" x2="0" y2="1"><stop offset="0" stop-color="#eff5f7"/><stop offset="1" stop-color="#d0dde3"/></linearGradient>
    <linearGradient id="g" x1="0" y1="0" x2="0" y2="1"><stop offset="0" stop-color="#e9f2f5"/><stop offset="1" stop-color="#c0d6de"/></linearGradient>
    <radialGradient id="o" cx="0.42" cy="0.36" r="0.74"><stop offset="0" stop-color="#3c6879"/><stop offset="1" stop-color="#11242d"/></radialGradient>
    <filter id="lift" x="-16%" y="-16%" width="132%" height="132%"><feDropShadow dx="0" dy="2.5" stdDeviation="3" flood-color="#0d1b20" flood-opacity=".18"/></filter>
  </defs>
  <g fill="none" stroke-linecap="round" stroke-linejoin="round" filter="url(#lift)">
    <ellipse cx="160" cy="176" rx="104" ry="9" fill="#0d1b20" opacity="0.07"/>
    <rect x="66" y="14" width="188" height="16" rx="8" fill="url(#h)" stroke="#0d1b20" stroke-width="2.4"/>
    <rect x="94" y="18" width="22" height="8" rx="3" fill="#2b990b" stroke-width="2.4"/>
    <rect x="156" y="18" width="22" height="8" rx="3" fill="#023aaa" stroke-width="2.4"/>
    <rect x="218" y="18" width="22" height="8" rx="3" fill="#5b7480" stroke-width="2.4"/>
    <rect x="70" y="30" width="38" height="142" rx="8" fill="url(#b)" stroke="#0d1b20" stroke-width="2.4"/>
    <rect x="212" y="30" width="38" height="142" rx="8" fill="url(#b)" stroke="#0d1b20" stroke-width="2.4"/>
    <rect x="98" y="40.0" width="7" height="11.9" rx="3" fill="#2b990b" stroke-width="2.4"/>
    <rect x="215" y="40.0" width="7" height="11.9" rx="3" fill="#2b990b" stroke-width="2.4"/>
    <line x1="80" y1="45.95" x2="92" y2="45.95" stroke="#c3d2d8" stroke-width="1.8"/>
    <line x1="228" y1="45.95" x2="240" y2="45.95" stroke="#c3d2d8" stroke-width="1.8"/>
    <rect x="98" y="58.0" width="7" height="11.9" rx="3" fill="#2b990b" stroke-width="2.4"/>
    <rect x="215" y="58.0" width="7" height="11.9" rx="3" fill="#2b990b" stroke-width="2.4"/>
    <line x1="80" y1="63.95" x2="92" y2="63.95" stroke="#c3d2d8" stroke-width="1.8"/>
    <line x1="228" y1="63.95" x2="240" y2="63.95" stroke="#c3d2d8" stroke-width="1.8"/>
    <rect x="98" y="76.0" width="7" height="11.9" rx="3" fill="#2b990b" stroke-width="2.4"/>
    <rect x="215" y="76.0" width="7" height="11.9" rx="3" fill="#2b990b" stroke-width="2.4"/>
    <line x1="80" y1="81.95" x2="92" y2="81.95" stroke="#c3d2d8" stroke-width="1.8"/>
    <line x1="228" y1="81.95" x2="240" y2="81.95" stroke="#c3d2d8" stroke-width="1.8"/>
    <rect x="98" y="94.0" width="7" height="11.9" rx="3" fill="#023aaa" stroke-width="2.4"/>
    <rect x="215" y="94.0" width="7" height="11.9" rx="3" fill="#023aaa" stroke-width="2.4"/>
    <line x1="80" y1="99.95" x2="92" y2="99.95" stroke="#c3d2d8" stroke-width="1.8"/>
    <line x1="228" y1="99.95" x2="240" y2="99.95" stroke="#c3d2d8" stroke-width="1.8"/>
    <rect x="98" y="112.0" width="7" height="11.9" rx="3" fill="#023aaa" stroke-width="2.4"/>
    <rect x="215" y="112.0" width="7" height="11.9" rx="3" fill="#023aaa" stroke-width="2.4"/>
    <line x1="80" y1="117.95" x2="92" y2="117.95" stroke="#c3d2d8" stroke-width="1.8"/>
    <line x1="228" y1="117.95" x2="240" y2="117.95" stroke="#c3d2d8" stroke-width="1.8"/>
    <rect x="98" y="130.0" width="7" height="11.9" rx="3" fill="#c3d2d8" stroke-width="2.4"/>
    <rect x="215" y="130.0" width="7" height="11.9" rx="3" fill="#c3d2d8" stroke-width="2.4"/>
    <line x1="80" y1="135.95" x2="92" y2="135.95" stroke="#c3d2d8" stroke-width="1.8"/>
    <line x1="228" y1="135.95" x2="240" y2="135.95" stroke="#c3d2d8" stroke-width="1.8"/>
    <rect x="98" y="148.0" width="7" height="11.9" rx="3" fill="#c3d2d8" stroke-width="2.4"/>
    <rect x="215" y="148.0" width="7" height="11.9" rx="3" fill="#c3d2d8" stroke-width="2.4"/>
    <line x1="80" y1="153.95" x2="92" y2="153.95" stroke="#c3d2d8" stroke-width="1.8"/>
    <line x1="228" y1="153.95" x2="240" y2="153.95" stroke="#c3d2d8" stroke-width="1.8"/>
    <path d="M108,172 L212,172" stroke="#5b7480" stroke-width="2.1" fill="none" stroke-dasharray="7 7"/>
  </g>
</svg>
