<?xml version="1.0" encoding="UTF-8"?>
<svg xmlns="http://www.w3.org/2000/svg" viewBox="0 0 900 1200" width="900" height="1200" role="img" aria-label="Security assessments">
  <title>Security assessments</title>
  <defs>
    <linearGradient id="ink" x1="0" y1="0" x2="0.35" y2="1"><stop offset="0" stop-color="#0b161b"/><stop offset="0.55" stop-color="#0e1f26"/><stop offset="1" stop-color="#12252c"/></linearGradient>
    <radialGradient id="sweep" cx="0.8" cy="0.12" r="0.95"><stop offset="0" stop-color="#1a4a5e"/><stop offset="0.45" stop-color="#123341"/><stop offset="1" stop-color="#000000" stop-opacity="0"/></radialGradient>
    <linearGradient id="m" x1="0" y1="0" x2="0.2" y2="1"><stop offset="0" stop-color="#31525e"/><stop offset="0.55" stop-color="#1d3640"/><stop offset="1" stop-color="#142630"/></linearGradient>
    <linearGradient id="l" x1="0" y1="0" x2="0.4" y2="1"><stop offset="0" stop-color="#1b4150"/><stop offset="0.5" stop-color="#102b35"/><stop offset="1" stop-color="#0a1b22"/></linearGradient>
    <linearGradient id="d" x1="0" y1="0" x2="0" y2="1"><stop offset="0" stop-color="#16262d"/><stop offset="1" stop-color="#0a1418"/></linearGradient>
    <pattern id="grid" width="48" height="48" patternUnits="userSpaceOnUse"><path d="M48,0 L0,0 0,48" stroke="#1d3a45" stroke-width="1" fill="none"/></pattern>
    <filter id="bloom" x="-30%" y="-30%" width="160%" height="160%"><feGaussianBlur stdDeviation="7" result="b"/><feMerge><feMergeNode in="b"/><feMergeNode in="SourceGraphic"/></feMerge></filter>
  </defs>
  <g fill="none" stroke-linecap="round" stroke-linejoin="round">
    <rect x="0" y="0" width="900" height="1200" fill="url(#ink)" stroke-width="2"/>
    <rect x="0" y="0" width="900" height="1200" fill="url(#sweep)" stroke-width="2"/>
    <rect x="0" y="0" width="900" height="1200" fill="url(#grid)" stroke-width="2" opacity="0.5"/>
    <line x1="90" y1="840" x2="810" y2="840" stroke="#40606d" stroke-width="1.5" opacity="0.7"/>
    <line x1="234.0" y1="840" x2="162.0" y2="1008.0" stroke="#40606d" stroke-width="1.25" opacity="0.45"/>
    <line x1="414.0" y1="840" x2="396.0" y2="1008.0" stroke="#40606d" stroke-width="1.25" opacity="0.45"/>
    <line x1="594.0" y1="840" x2="612.0" y2="1008.0" stroke="#40606d" stroke-width="1.25" opacity="0.45"/>
    <line x1="774.0" y1="840" x2="810.0" y2="1008.0" stroke="#40606d" stroke-width="1.25" opacity="0.45"/>
    <line x1="70" y1="70" x2="104" y2="70" stroke="#2a6ff0" stroke-width="2"/>
    <line x1="70" y1="70" x2="70" y2="104" stroke="#2a6ff0" stroke-width="2"/>
    <line x1="830" y1="70" x2="796" y2="70" stroke="#2a6ff0" stroke-width="2"/>
    <line x1="830" y1="70" x2="830" y2="104" stroke="#2a6ff0" stroke-width="2"/>
    <line x1="70" y1="1130" x2="104" y2="1130" stroke="#2a6ff0" stroke-width="2"/>
    <line x1="70" y1="1130" x2="70" y2="1096" stroke="#2a6ff0" stroke-width="2"/>
    <line x1="830" y1="1130" x2="796" y2="1130" stroke="#2a6ff0" stroke-width="2"/>
    <line x1="830" y1="1130" x2="830" y2="1096" stroke="#2a6ff0" stroke-width="2"/>
    <text x="100" y="1126" font-family="ui-monospace, 'JetBrains Mono', 'Segoe UI', monospace" font-size="24" fill="#8fb1bd" letter-spacing="7" text-anchor="start" font-weight="600">SITE ASSESSMENT</text>
    <line x1="100" y1="1144" x2="329" y2="1144" stroke="#2a6ff0" stroke-width="2"/>
    <text x="800" y="210" font-family="Inter, 'Segoe UI', system-ui, Arial, sans-serif" font-size="118" fill="#8fb1bd" letter-spacing="0" text-anchor="end" opacity="0.12" font-weight="700">06</text>
    <ellipse cx="320" cy="840" rx="250" ry="24" fill="#0d1b20" stroke-width="2" opacity="0.55"/>
    <rect x="110" y="320" width="400" height="520" rx="6" fill="url(#m)" stroke="#8fb1bd" stroke-width="3"/>
    <rect x="128.0" y="338.0" width="80.0" height="68.66666666666667" rx="2" fill="url(#d)" stroke="#40606d" stroke-width="1.5"/>
    <rect x="218.0" y="338.0" width="80.0" height="68.66666666666667" rx="2" fill="url(#d)" stroke="#40606d" stroke-width="1.5"/>
    <rect x="308.0" y="338.0" width="80.0" height="68.66666666666667" rx="2" fill="url(#d)" stroke="#40606d" stroke-width="1.5"/>
    <rect x="398.0" y="338.0" width="80.0" height="68.66666666666667" rx="2" fill="url(#d)" stroke="#40606d" stroke-width="1.5"/>
    <rect x="128.0" y="418.6666666666667" width="80.0" height="68.66666666666667" rx="2" fill="url(#d)" stroke="#40606d" stroke-width="1.5"/>
    <rect x="218.0" y="418.6666666666667" width="80.0" height="68.66666666666667" rx="2" fill="url(#d)" stroke="#40606d" stroke-width="1.5"/>
    <rect x="308.0" y="418.6666666666667" width="80.0" height="68.66666666666667" rx="2" fill="url(#d)" stroke="#40606d" stroke-width="1.5"/>
    <rect x="398.0" y="418.6666666666667" width="80.0" height="68.66666666666667" rx="2" fill="url(#d)" stroke="#40606d" stroke-width="1.5"/>
    <rect x="128.0" y="499.33333333333337" width="80.0" height="68.66666666666667" rx="2" fill="url(#d)" stroke="#40606d" stroke-width="1.5"/>
    <rect x="218.0" y="499.33333333333337" width="80.0" height="68.66666666666667" rx="2" fill="url(#d)" stroke="#40606d" stroke-width="1.5"/>
    <rect x="308.0" y="499.33333333333337" width="80.0" height="68.66666666666667" rx="2" fill="url(#d)" stroke="#40606d" stroke-width="1.5"/>
    <rect x="398.0" y="499.33333333333337" width="80.0" height="68.66666666666667" rx="2" fill="url(#d)" stroke="#40606d" stroke-width="1.5"/>
    <rect x="128.0" y="580.0" width="80.0" height="68.66666666666667" rx="2" fill="url(#d)" stroke="#40606d" stroke-width="1.5"/>
    <rect x="218.0" y="580.0" width="80.0" height="68.66666666666667" rx="2" fill="url(#d)" stroke="#40606d" stroke-width="1.5"/>
    <rect x="308.0" y="580.0" width="80.0" height="68.66666666666667" rx="2" fill="url(#d)" stroke="#40606d" stroke-width="1.5"/>
    <rect x="398.0" y="580.0" width="80.0" height="68.66666666666667" rx="2" fill="url(#d)" stroke="#40606d" stroke-width="1.5"/>
    <rect x="128.0" y="660.6666666666667" width="80.0" height="68.66666666666667" rx="2" fill="url(#d)" stroke="#40606d" stroke-width="1.5"/>
    <rect x="218.0" y="660.6666666666667" width="80.0" height="68.66666666666667" rx="2" fill="url(#d)" stroke="#40606d" stroke-width="1.5"/>
    <rect x="308.0" y="660.6666666666667" width="80.0" height="68.66666666666667" rx="2" fill="url(#d)" stroke="#40606d" stroke-width="1.5"/>
    <rect x="398.0" y="660.6666666666667" width="80.0" height="68.66666666666667" rx="2" fill="url(#d)" stroke="#40606d" stroke-width="1.5"/>
    <rect x="128.0" y="741.3333333333334" width="80.0" height="68.66666666666667" rx="2" fill="url(#d)" stroke="#40606d" stroke-width="1.5"/>
    <rect x="218.0" y="741.3333333333334" width="80.0" height="68.66666666666667" rx="2" fill="url(#d)" stroke="#40606d" stroke-width="1.5"/>
    <rect x="308.0" y="741.3333333333334" width="80.0" height="68.66666666666667" rx="2" fill="url(#d)" stroke="#40606d" stroke-width="1.5"/>
    <rect x="398.0" y="741.3333333333334" width="80.0" height="68.66666666666667" rx="2" fill="url(#d)" stroke="#40606d" stroke-width="1.5"/>
    <line x1="80" y1="840" x2="560" y2="840" stroke="#8fb1bd" stroke-width="4"/>
    <path d="M700,320 L700,840" stroke="#8fb1bd" stroke-width="7" fill="none"/>
    <rect x="652" y="300" width="96" height="22" rx="6" fill="url(#m)" stroke="#8fb1bd" stroke-width="3"/>
    <g transform="translate(680 376) scale(0.80)">
    <path d="M0,26 L0,54 L34,54" stroke="#8fb1bd" stroke-width="6" fill="none"/>
    <rect x="-6" y="48" width="46" height="12" rx="4" fill="url(#m)" stroke="#8fb1bd" stroke-width="3"/>
    <g transform="rotate(178)">
    <rect x="-96" y="-26" width="128" height="52" rx="16" fill="url(#m)" stroke="#8fb1bd" stroke-width="4"/>
    <path d="M32,-26 L58,-16 L58,16 L32,26" stroke="#8fb1bd" stroke-width="4" fill="url(#l)"/>
    <circle cx="64" cy="0" r="13" fill="url(#d)" stroke="#8fb1bd" stroke-width="3"/>
    <circle cx="64" cy="0" r="5" fill="#2a6ff0" stroke-width="2"/>
    <rect x="-84" y="-34" width="44" height="10" rx="5" fill="url(#d)" stroke="#8fb1bd" stroke-width="3"/>
    <line x1="-60" y1="14" x2="10" y2="14" stroke="#40606d" stroke-width="3"/>
    </g>
    </g>
    <g filter="url(#bloom)">
    <path d="M596,370 L176,557 A460,460 0 0,1 154,243 Z" stroke="#2a6ff0" stroke-width="1.5" fill="#2a6ff0" opacity="0.24"/>
    <path d="M596,370 L205,287 A400,400 0 0,1 290,113 Z" stroke="#2a6ff0" stroke-width="1.5" fill="#2a6ff0" opacity="0.16"/>
    </g>
    <g transform="translate(150 716) scale(0.62)">
    <path d="M0,26 L0,54 L34,54" stroke="#8fb1bd" stroke-width="6" fill="none"/>
    <rect x="-6" y="48" width="46" height="12" rx="4" fill="url(#m)" stroke="#8fb1bd" stroke-width="3"/>
    <g transform="rotate(6)">
    <rect x="-96" y="-26" width="128" height="52" rx="16" fill="url(#m)" stroke="#8fb1bd" stroke-width="4"/>
    <path d="M32,-26 L58,-16 L58,16 L32,26" stroke="#8fb1bd" stroke-width="4" fill="url(#l)"/>
    <circle cx="64" cy="0" r="13" fill="url(#d)" stroke="#8fb1bd" stroke-width="3"/>
    <circle cx="64" cy="0" r="5" fill="#2a6ff0" stroke-width="2"/>
    <rect x="-84" y="-34" width="44" height="10" rx="5" fill="url(#d)" stroke="#8fb1bd" stroke-width="3"/>
    <line x1="-60" y1="14" x2="10" y2="14" stroke="#40606d" stroke-width="3"/>
    </g>
    </g>
    <g filter="url(#bloom)">
    <path d="M250,722 L576,570 A360,360 0 0,1 609,753 Z" stroke="#6fd44a" stroke-width="1.5" fill="#6fd44a" opacity="0.16"/>
    </g>
    <circle cx="300" cy="486" r="76" stroke="#2a6ff0" stroke-width="5" opacity="0.95"/>
    <line x1="356" y1="542" x2="402" y2="588" stroke="#2a6ff0" stroke-width="8"/>
    <circle cx="300" cy="486" r="76" fill="#2a6ff0" stroke-width="2" opacity="0.1"/>
    <line x1="100" y1="902" x2="800" y2="902" stroke="#40606d" stroke-width="1.5" opacity="0.7"/>
    <text x="100" y="894" font-family="ui-monospace, 'JetBrains Mono', 'Segoe UI', monospace" font-size="20" fill="#8fb1bd" letter-spacing="5" text-anchor="start" opacity="0.85" font-weight="600">SURVEY RECORD</text>
    <line x1="126.0" y1="938" x2="317.33333333333337" y2="938" stroke="#40606d" stroke-width="2.5" opacity="0.6"/>
    <rect x="100.0" y="928" width="16" height="16" rx="3" stroke="#40606d" stroke-width="2"/>
    <path d="M102,932 l6,6 12,-13" stroke="#6fd44a" stroke-width="3.5" fill="none"/>
    <line x1="359.33333333333337" y1="938" x2="550.6666666666667" y2="938" stroke="#40606d" stroke-width="2.5" opacity="0.6"/>
    <rect x="333.33333333333337" y="928" width="16" height="16" rx="3" stroke="#40606d" stroke-width="2"/>
    <line x1="592.6666666666667" y1="938" x2="784.0000000000001" y2="938" stroke="#40606d" stroke-width="2.5" opacity="0.6"/>
    <rect x="566.6666666666667" y="928" width="16" height="16" rx="3" stroke="#40606d" stroke-width="2"/>
    <line x1="126.0" y1="980" x2="317.33333333333337" y2="980" stroke="#40606d" stroke-width="2.5" opacity="0.6"/>
    <rect x="100.0" y="970" width="16" height="16" rx="3" stroke="#40606d" stroke-width="2"/>
    <line x1="359.33333333333337" y1="980" x2="550.6666666666667" y2="980" stroke="#40606d" stroke-width="2.5" opacity="0.6"/>
    <rect x="333.33333333333337" y="970" width="16" height="16" rx="3" stroke="#40606d" stroke-width="2"/>
    <line x1="592.6666666666667" y1="980" x2="784.0000000000001" y2="980" stroke="#40606d" stroke-width="2.5" opacity="0.6"/>
    <rect x="566.6666666666667" y="970" width="16" height="16" rx="3" stroke="#40606d" stroke-width="2"/>
    <line x1="126.0" y1="1022" x2="317.33333333333337" y2="1022" stroke="#40606d" stroke-width="2.5" opacity="0.6"/>
    <rect x="100.0" y="1012" width="16" height="16" rx="3" stroke="#40606d" stroke-width="2"/>
    <line x1="359.33333333333337" y1="1022" x2="550.6666666666667" y2="1022" stroke="#40606d" stroke-width="2.5" opacity="0.6"/>
    <rect x="333.33333333333337" y="1012" width="16" height="16" rx="3" stroke="#40606d" stroke-width="2"/>
    <line x1="592.6666666666667" y1="1022" x2="784.0000000000001" y2="1022" stroke="#40606d" stroke-width="2.5" opacity="0.6"/>
    <rect x="566.6666666666667" y="1012" width="16" height="16" rx="3" stroke="#40606d" stroke-width="2"/>
    <path d="M568,1016 l6,6 12,-13" stroke="#6fd44a" stroke-width="3.5" fill="none"/>
  </g>
</svg>
