<?xml version="1.0" encoding="UTF-8"?>
<svg xmlns="http://www.w3.org/2000/svg" viewBox="0 0 600 400" width="600" height="400" role="img" aria-label="Page not found">
  <title>Page not found</title>
  <defs>
    <linearGradient id="ink" x1="0" y1="0" x2="0.35" y2="1"><stop offset="0" stop-color="#0b161b"/><stop offset="0.55" stop-color="#0e1f26"/><stop offset="1" stop-color="#12252c"/></linearGradient>
    <radialGradient id="sweep" cx="0.8" cy="0.12" r="0.95"><stop offset="0" stop-color="#1a4a5e"/><stop offset="0.45" stop-color="#123341"/><stop offset="1" stop-color="#000000" stop-opacity="0"/></radialGradient>
    <linearGradient id="m" x1="0" y1="0" x2="0.2" y2="1"><stop offset="0" stop-color="#31525e"/><stop offset="0.55" stop-color="#1d3640"/><stop offset="1" stop-color="#142630"/></linearGradient>
    <linearGradient id="l" x1="0" y1="0" x2="0.4" y2="1"><stop offset="0" stop-color="#1b4150"/><stop offset="0.5" stop-color="#102b35"/><stop offset="1" stop-color="#0a1b22"/></linearGradient>
    <linearGradient id="d" x1="0" y1="0" x2="0" y2="1"><stop offset="0" stop-color="#16262d"/><stop offset="1" stop-color="#0a1418"/></linearGradient>
    <pattern id="grid" width="48" height="48" patternUnits="userSpaceOnUse"><path d="M48,0 L0,0 0,48" stroke="#1d3a45" stroke-width="1" fill="none"/></pattern>
    <filter id="bloom" x="-30%" y="-30%" width="160%" height="160%"><feGaussianBlur stdDeviation="7" result="b"/><feMerge><feMergeNode in="b"/><feMergeNode in="SourceGraphic"/></feMerge></filter>
  </defs>
  <g fill="none" stroke-linecap="round" stroke-linejoin="round">
    <rect x="0" y="0" width="600" height="400" fill="url(#ink)" stroke-width="2"/>
    <rect x="0" y="0" width="600" height="400" fill="url(#sweep)" stroke-width="2"/>
    <rect x="0" y="0" width="600" height="400" fill="url(#grid)" stroke-width="2" opacity="0.45"/>
    <line x1="24" y1="52" x2="58" y2="52" stroke="#2a6ff0" stroke-width="2"/>
    <line x1="24" y1="52" x2="24" y2="86" stroke="#2a6ff0" stroke-width="2"/>
    <line x1="576" y1="348" x2="542" y2="348" stroke="#2a6ff0" stroke-width="2"/>
    <line x1="576" y1="348" x2="576" y2="314" stroke="#2a6ff0" stroke-width="2"/>
    <circle cx="96" cy="176" r="16" fill="url(#d)" stroke="#8fb1bd" stroke-width="3"/>
    <circle cx="96" cy="176" r="5" fill="#6fd44a" stroke-width="2"/>
    <path d="M112,176 C200,176 210,104 300,104 C372,104 380,160 428,160" stroke="#8fb1bd" stroke-width="3.5" fill="none" stroke-dasharray="10 14"/>
    <rect x="428" y="134" width="84" height="52" rx="8" fill="url(#d)" stroke="#40606d" stroke-width="3" stroke-dasharray="8 10"/>
    <line x1="450" y1="160" x2="490" y2="160" stroke="#40606d" stroke-width="3"/>
    <g filter="url(#bloom)">
    <circle cx="300" cy="104" r="30" stroke="#2a6ff0" stroke-width="2" opacity="0.6" stroke-dasharray="3 12"/>
    </g>
    <text x="74" y="300" font-family="Inter, 'Segoe UI', system-ui, Arial, sans-serif" font-size="88" fill="#8fb1bd" letter-spacing="0" text-anchor="start" font-weight="700">404</text>
    <text x="212" y="282" font-family="ui-monospace, 'JetBrains Mono', 'Segoe UI', monospace" font-size="22" fill="#8fb1bd" letter-spacing="6" text-anchor="start" font-weight="600">OFF THE ROUTE</text>
    <line x1="212" y1="296" x2="388" y2="296" stroke="#2a6ff0" stroke-width="2"/>
  </g>
</svg>
